<?xml version="1.0" encoding="utf-8"?>
<!-- Generator: Adobe Illustrator 20.1.0, SVG Export Plug-In . SVG Version: 6.00 Build 0)  -->
<svg version="1.1" id="Layer_1" xmlns="http://www.w3.org/2000/svg" xmlns:xlink="http://www.w3.org/1999/xlink" x="0px" y="0px"
	 viewBox="0 0 64 64" style="enable-background:new 0 0 64 64;" xml:space="preserve">
<path d="M59.7,16C50.9,0.7,31.3-4.5,16,4.3c-2.7,1.5-5,3.4-7,5.5l0,0C-0.7,19.8-3,35.4,4.3,48C13.1,63.3,32.7,68.5,48,59.7
	c2.2-1.3,4.3-2.8,6-4.5l0,0C64.5,45.2,67.2,29.1,59.7,16z M49.9,50.9c-1.4,1.4-3.1,2.6-4.9,3.6C32.6,61.7,16.7,57.4,9.5,45
	c-5.9-10.2-4.1-22.8,3.7-30.9c1.7-1.8,3.6-3.3,5.9-4.6C31.4,2.3,47.3,6.6,54.5,19C60.6,29.6,58.4,42.8,49.9,50.9z"/>
<path d="M37.6,9.3c-5.5,0-10.4,2.3-14,5.9c-0.1,0.1-0.1,0.1-0.2,0.2c-3.3,3.5-5.4,8.2-5.4,13.5c0,10.8,8.7,19.5,19.5,19.5
	c5.2,0,10-2,13.5-5.4c0.1,0,0.1-0.1,0.2-0.2c3.6-3.5,5.9-8.5,5.9-14C57.1,18,48.4,9.3,37.6,9.3z M48.6,40.2L48.6,40.2
	c-2.9,2.7-6.7,4.4-11,4.4c-8.7,0-15.8-7.1-15.8-15.8c0-4.2,1.7-8.1,4.4-10.9l0,0c2.9-3,6.9-4.9,11.4-4.9c8.7,0,15.8,7.1,15.8,15.8
	C53.5,33.2,51.6,37.3,48.6,40.2z"/>
<path d="M33.6,16.7c-3.4,0-6.5,1.4-8.7,3.8c-2,2.1-3.3,5-3.3,8.2c0,6.6,5.4,12,12,12c3.2,0,6.1-1.2,8.2-3.3c2.3-2.2,3.8-5.3,3.8-8.7
	C45.7,22.1,40.3,16.7,33.6,16.7z M40.3,35.9c-1.7,1.6-4.1,2.6-6.6,2.6c-5.4,0-9.8-4.4-9.8-9.8c0-2.6,1-4.9,2.6-6.6
	c1.8-1.9,4.3-3.1,7.1-3.1c5.4,0,9.8,4.4,9.8,9.8C43.4,31.6,42.2,34.1,40.3,35.9z"/>
</svg>
