<svg xmlns="http://www.w3.org/2000/svg" xmlns:xlink="http://www.w3.org/1999/xlink" width="192" height="192" viewBox="0 0 192 192"><defs><clipPath id="a"><rect width="28.001" height="32" fill="#fff"/></clipPath></defs><g transform="translate(1532 -788)"><rect width="192" height="192" transform="translate(-1532 788)" fill="#101820"/><g transform="translate(-1450 868)"><g transform="translate(0 0)" clip-path="url(#a)"><path d="M20,26.636l-.011-.008a14,14,0,1,0-11.978,0L8,26.636V28H0v4H12V23.8a10,10,0,1,1,4,0V32H28V28H20ZM18,14a4,4,0,1,1-4-4,4,4,0,0,1,4,4" transform="translate(0 0)" fill="#fff"/></g></g></g></svg>