<?xml version="1.0" encoding="utf-8"?>
<!-- Generator: Adobe Illustrator 18.1.1, SVG Export Plug-In . SVG Version: 6.00 Build 0)  -->
<svg version="1.1" id="Layer_1" xmlns="http://www.w3.org/2000/svg" xmlns:xlink="http://www.w3.org/1999/xlink" x="0px" y="0px"
	 viewBox="0 0 64 64" enable-background="new 0 0 64 64" xml:space="preserve">
<path fill="#B3B3B3" d="M52,62c0,0-10.8-1.8-13.2-4.7c-2.3-2.7-2.6-6.4-2.7-9.7c-1.5,0.1-3,0-4.5,0c-0.7,0-2,0-3.8-0.1
	c-0.1,3.3-0.6,7.2-2.9,9.9c-2.4,2.9-7,4.6-13.5,4.6H10v-4h1.3c5.8,0,9.4-0.9,11.4-3.2c1.5-1.8,1.9-4.2,2-7.5
	c-7.7-0.5-11.5-1.8-11.5-4.1c0-2.2,3.6-3.5,11.1-4.1c0-0.4-0.1-0.7-0.1-1.1c-0.1-1.5-0.2-3-0.3-5l0,0c-2.8,0-5.4-1.1-7.3-3.2
	c-1.2,0.5-2.5,0.8-3.7,0.8c-6.1,0-11-5.3-11-11.8C2,12.2,6.9,6.9,13,6.9c0.3,0,0.7,0,1,0c1.7-3,4.7-4.9,8-4.9c2.3,0,4.4,0.9,6.1,2.5
	c1.2-0.5,2.6-0.8,4-0.8c1.6,0,3.2,0.4,4.7,1.1c1.5-0.9,3.2-1.4,4.9-1.4c2.9,0,5.6,1.3,7.5,3.6C50.1,6.7,51,6.6,52,6.6
	c5.6,0,10.1,4.9,10.1,10.9c0,5.8-4.2,10.6-9.5,10.9c-1.4,3.7-4.8,6.1-8.5,6.1c-1.4,0-2.9-0.4-4.1-1.1c-0.1,1.5-0.2,3.1-0.3,4.5
	c0,0.4-0.1,0.8-0.1,1.2c7,0.6,10.4,1.9,10.4,4c0,2.2-3.5,3.5-10.7,4.1c0.1,3.8,0.4,6,1.8,7.7c2,2.3,5.1,3.1,11.1,3.1l0,0v4H52z
	 M24.6,42.2c-3.4,0.3-5.7,0.7-7.1,1.1c1.4,0.4,3.8,0.8,7.2,1.1C24.7,43.6,24.7,42.9,24.6,42.2z M36.2,44.5c0-0.8,0.1-1.6,0.1-2.4
	C34.8,42,33.2,42,31.5,42c-1.3,0-2.6,0-4,0.1c0,0.9,0.1,1.7,0.1,2.5c1.2,0,2.5,0.1,3.9,0.1C33.1,44.6,34.7,44.5,36.2,44.5z
	 M36.7,37.7c0.2-2.1,0.3-4.2,0.4-6.5c-0.3-0.4-0.6-0.7-0.8-1.2c-0.7,0.3-1.4,0.4-2.1,0.4c-1.1,0-2.2-0.3-3.1-0.9
	c-1.2,1.3-2.6,2.3-4.2,2.9c0.1,1.8,0.3,3.6,0.4,5.3l0.1,1.2c1.7-0.1,3.2-0.1,4.2-0.1c1.7,0,3.4,0,5,0.1
	C36.6,38.9,36.7,37.7,36.7,37.7z M45.6,43.2c-1.3-0.4-3.4-0.7-6.4-1c0,0.7-0.1,1.3-0.1,2C42.1,44,44.3,43.6,45.6,43.2z M50.1,26.6
	l0.3-1.2l1.2,0.3c0.1,0,0.2,0.3,0.3,0.3l0,0c4,0,7.2-3.8,7.2-8.2c0-4.3-3.2-8.1-7.2-8.1c-0.9,0-1.9,0.2-2.7,0.6l-1.1,0.5l-0.7-1
	c-1.4-2-3.5-3.2-5.8-3.2c-1.4,0-2.8,0.5-4,1.3l-0.8,0.5L36,7.9c-1.2-0.7-2.6-1.1-4-1.1c-1.3,0-2.5,0.3-3.6,0.9l-1,0.6l-0.7-0.9
	C25.5,5.9,23.8,5,22,5c-2.5,0-4.8,1.6-5.8,4.1l-0.5,1.1l-1.2-0.3c-0.5-0.1-1-0.2-1.6-0.2c-4.5,0-8.1,3.9-8.1,8.8
	c0,4.8,3.6,8.8,8.1,8.8c1.1,0,2.3-0.3,3.5-0.9l1.1-0.6l0.7,1.1c1.3,1.9,3.4,2.9,5.7,2.9l0,0c0.1,0,0.2,0,0.3,0
	c0.6,0,1.2-0.2,1.8-0.4c1.4-0.5,2.6-1.6,3.6-3l1-1.5l1.2,1.4c0.6,0.7,1.4,1,2.2,1c0.7,0,1.3-0.2,1.8-0.7l1.5-1.3l0.7,1.9
	c0.4,1,0.9,1.8,1.7,2.5c1.1,1.1,2.6,1.6,4.1,1.6C46.8,31.5,49.3,29.6,50.1,26.6z"/>
</svg>
