<?xml version="1.0" encoding="utf-8"?>
<!-- Generator: Adobe Illustrator 19.1.0, SVG Export Plug-In . SVG Version: 6.00 Build 0)  -->
<svg version="1.1" id="Layer_1" xmlns="http://www.w3.org/2000/svg" xmlns:xlink="http://www.w3.org/1999/xlink" x="0px" y="0px"
	 viewBox="0 0 64 64" enable-background="new 0 0 64 64" xml:space="preserve">
<g>
	<path fill="#95A5A6" d="M53.5,19.8C46.7,8,31.7,4,20,10.8c-2,1.2-3.8,2.6-5.4,4.2c0,0,0,0,0,0C7.2,22.7,5.5,34.6,11,44.2
		c6.8,11.7,21.7,15.7,33.5,9c1.7-1,3.3-2.1,4.6-3.4c0,0,0,0,0,0C57.2,42.1,59.2,29.7,53.5,19.8z M45.9,46.5c-1.1,1-2.3,2-3.7,2.8
		C32.7,54.7,20.5,51.4,15,42c-4.5-7.8-3.1-17.4,2.8-23.7c1.3-1.3,2.8-2.6,4.5-3.5C31.8,9.3,44,12.6,49.5,22
		C54.2,30.2,52.5,40.3,45.9,46.5z"/>
	<path fill="#BDC3C7" d="M36.6,14.6c-4.2,0-8,1.7-10.7,4.5c0,0-0.1,0.1-0.1,0.1c-2.6,2.7-4.1,6.3-4.1,10.3c0,8.2,6.7,14.9,14.9,14.9
		c4,0,7.6-1.6,10.3-4.1c0,0,0.1-0.1,0.1-0.1c2.8-2.7,4.5-6.5,4.5-10.7C51.5,21.3,44.8,14.6,36.6,14.6z M45,38.3
		C45,38.3,44.9,38.3,45,38.3c-2.2,2.1-5.2,3.4-8.4,3.4c-6.7,0-12.1-5.4-12.1-12.1c0-3.3,1.3-6.2,3.4-8.4c0,0,0,0,0,0
		c2.2-2.3,5.3-3.8,8.8-3.8c6.7,0,12.1,5.4,12.1,12.1C48.7,33,47.3,36.1,45,38.3z"/>
	<path fill="#E74C3C" d="M33.5,20.3c-2.6,0-5,1.1-6.7,2.9c-1.5,1.6-2.5,3.9-2.5,6.3c0,5.1,4.1,9.2,9.2,9.2c2.4,0,4.7-1,6.3-2.5
		c1.8-1.7,2.9-4.1,2.9-6.7C42.7,24.4,38.6,20.3,33.5,20.3z M38.6,35c-1.3,1.2-3.1,2-5.1,2c-4.1,0-7.5-3.4-7.5-7.5c0-2,0.8-3.8,2-5.1
		c1.4-1.5,3.3-2.4,5.5-2.4c4.1,0,7.5,3.4,7.5,7.5C41,31.7,40.1,33.6,38.6,35z"/>
</g>
</svg>
