<?xml version="1.0" encoding="utf-8"?>
<!-- Generator: Adobe Illustrator 16.0.4, SVG Export Plug-In . SVG Version: 6.00 Build 0)  -->
<!DOCTYPE svg PUBLIC "-//W3C//DTD SVG 1.1//EN" "http://www.w3.org/Graphics/SVG/1.1/DTD/svg11.dtd">
<svg version="1.1" id="Layer_1" xmlns="http://www.w3.org/2000/svg" xmlns:xlink="http://www.w3.org/1999/xlink" x="0px" y="0px"
	 width="50px" height="50px" viewBox="0 0 50 50" enable-background="new 0 0 50 50" xml:space="preserve">
<path fill="#F9FCFF" d="M24.343,32.221C24.343,32.221,24.343,32.221,24.343,32.221c-1.228,0-2.43-0.346-3.475-0.999
	c-3.072-1.919-4.009-5.979-2.09-9.051c1.208-1.935,3.293-3.089,5.576-3.089c1.228,0,2.43,0.346,3.476,0.999
	c1.487,0.93,2.524,2.384,2.919,4.093s0.1,3.471-0.83,4.959C28.711,31.066,26.626,32.221,24.343,32.221z M27.926,27.888
	c0.598-0.956,0.787-2.088,0.533-3.185c-0.253-1.098-0.919-2.032-1.874-2.628c-0.673-0.42-1.444-0.642-2.23-0.642
	c-1.468,0-2.807,0.741-3.583,1.984c-0.596,0.953-0.784,2.083-0.53,3.183s0.919,2.033,1.873,2.63
	c0.671,0.419,1.442,0.642,2.229,0.642C25.811,29.871,27.15,29.129,27.926,27.888z"/>
<path fill="#F9FCFF" d="M28.953,35.955L28.953,35.955c-4.779,0-9.187-2.595-11.501-6.771c-3.512-6.336-1.215-14.347,5.12-17.859
	c1.947-1.078,4.146-1.648,6.357-1.648c4.779,0,9.188,2.594,11.502,6.77c3.512,6.337,1.215,14.348-5.121,17.86
	C33.364,35.385,31.165,35.955,28.953,35.955z M34.171,32.25c5.202-2.884,7.089-9.463,4.205-14.666
	c-1.9-3.429-5.52-5.559-9.446-5.559c-1.814,0-3.619,0.468-5.218,1.354c-5.202,2.884-7.088,9.463-4.204,14.666
	c1.9,3.43,5.52,5.561,9.445,5.561C30.769,33.605,32.572,33.137,34.171,32.25z">
	<animateTransform attributeName="transform" attributeType="XML" type="rotate" from="0 25 25" to="360 25 25" dur="1s" repeatCount="indefinite" />
</path>
<path fill="#F9FCFF" d="M25,45C13.972,45,5,36.028,5,25S13.972,5,25,5c11.027,0,20,8.972,20,20S36.027,45,25,45z M25,7.353
	C15.27,7.353,7.353,15.27,7.353,25S15.27,42.646,25,42.646S42.647,34.73,42.647,25S34.73,7.353,25,7.353z"/>
</svg>
